<svg xmlns="http://www.w3.org/2000/svg" width="24.376" height="23.624"><path d="M2.588-.003h19.2c2.651 0 2.4-.247 2.4 2.363v18.9c0 2.61.251 2.363-2.4 2.363h-19.2c-2.651 0-2.4.247-2.4-2.363V2.36c0-2.61-.251-2.363 2.4-2.363zM1.2.803h21.975V22.79H1.2V.803zm11.838 15.973v1.992h-1.759v-1.992h1.759zm-4.286-8.52a4.361 4.361 0 0 1 .764-1.41 3.131 3.131 0 0 1 1.13-.878 3.978 3.978 0 0 1 1.591-.306 4.517 4.517 0 0 1 1.476.192 3.976 3.976 0 0 1 1.224.794 3.177 3.177 0 0 1 .772 1.1 3.679 3.679 0 0 1 .234 1.444 3.113 3.113 0 0 1-.233.943 3.28 3.28 0 0 1-.168.756 3.5 3.5 0 0 1-.371.629c-.179.192-.435.379-.619.56s-.447.343-.625.519a3.316 3.316 0 0 0-.318.56 2.693 2.693 0 0 0-.345.646 2.763 2.763 0 0 0-.13.872v.662h-1.746v-.88a3.328 3.328 0 0 1 .288-1.231 3.7 3.7 0 0 1 .554-.876c.216-.251 1.138-1.147 1.361-1.4a2.262 2.262 0 0 0 .786-1.893 2.1 2.1 0 0 0-.484-1.461 2.516 2.516 0 0 0-1.66-.523 1.784 1.784 0 0 0-.921.2 2.028 2.028 0 0 0-.689.611 2.372 2.372 0 0 0-.441.884 3.561 3.561 0 0 0-.138 1.016H8.535a4.029 4.029 0 0 1 .217-1.53z" fill="#c7cdd9" fill-rule="evenodd"/></svg>