<svg xmlns="http://www.w3.org/2000/svg" width="23.875" height="23"><path d="M19.473 12.7a.605.605 0 0 0-.581.707v8.572h-3.986v-4.351a.692.692 0 0 0-.67-.694H9.581a.708.708 0 0 0-.708.694v4.351H4.879v-8.655c0-.373 0-.617-.394-.617a.574.574 0 0 0-.6.617v8.994a.681.681 0 0 0 .669.682h4.695a.682.682 0 0 0 .67-.682v-4.2h3.987v4.2a.686.686 0 0 0 .695.682h4.631a.681.681 0 0 0 .669-.682v-8.911c.005-.4-.062-.707-.428-.707zm4.311-.853l-5.868-5.854v-4.2c0-.4-.109-.573-.5-.573a.5.5 0 0 0-.533.594V4.8L12.407.221a.662.662 0 0 0-.467-.219.68.68 0 0 0-.493.219L.096 11.77c-.273.277.164.549.454.8.253.3.815-.279 1.087-.556L11.906 1.048 22.59 12.365a.86.86 0 0 0 .542.283.353.353 0 0 0 .344-.046c.254-.258.579-.476.308-.755z" fill="#c7cdd9" fill-rule="evenodd"/></svg>