<svg xmlns="http://www.w3.org/2000/svg" preserveAspectRatio="xMidYMid" width="130" height="39"><path d="M124.999 15.005A5.001 5.001 0 0 1 120 10.007a4.987 4.987 0 0 1 4.999-4.999 4.971 4.971 0 0 1 4.998 4.999 4.986 4.986 0 0 1-4.998 4.998zm0-9.313c-2.405 0-4.339 1.91-4.339 4.315a4.342 4.342 0 0 0 4.339 4.338c2.381 0 4.314-1.957 4.314-4.338a4.302 4.302 0 0 0-4.314-4.315zm-1.156 4.928v2.263h-.754V7.154h2.334c.967 0 1.816.684 1.816 1.745 0 1.273-1.132 1.697-1.462 1.697l1.532 2.287h-.943l-1.485-2.263h-1.038zm2.618-1.721c0-.637-.543-1.085-1.038-1.085h-1.58v2.122h1.58c.495 0 1.038-.448 1.038-1.037zm-3.92 25.472a3.815 3.815 0 0 0-.387.9 2.029 2.029 0 0 0-.141.726c0 .312.106.554.317.762.211.173.457.277.809.277.844 0 1.83-.45 2.92-1.281 1.091-.865 2.217-2.042 3.378-3.6l.563.104-1.337 5.968h-13.686l7.247-13.548c.352-.623.599-1.108.739-1.523.176-.415.246-.874.246-1.15 0-.312-.07-.554-.246-.727-.176-.208-.422-.277-.739-.277-.774 0-1.688.562-2.709 1.462-.985.865-2.005 2.111-3.025 3.669l-.563-.069 1.372-6.268h12.63l-7.388 14.575zm-16.844.311c.81 1.419 2.041 1.999 3.659 1.999 1.126 0 2.146-.407 3.026-1.514.88-1.108 1.513-2.631 1.9-4.569l.879.657c-.387 2.354-1.301 4.189-2.673 5.538-1.408 1.35-3.096 1.861-5.137 1.861-2.322 0-4.257-.788-5.77-2.622-1.548-1.869-2.322-4.188-2.322-7.026 0-2.7.774-4.915 2.357-6.715 1.584-1.765 3.554-2.505 5.946-2.505 2.287 0 4.152.567 5.524 1.951 1.372 1.35 2.075 3.366 2.075 5.685h-10.695v.934c0 2.873.422 4.907 1.231 6.326zm4.082-8.874c0-1.627-.212-2.929-.634-3.794-.387-.865-.985-1.043-1.759-1.043-.809 0-1.442.324-1.97 1.259-.493.9-.774 2.02-.844 3.578h5.207zm-20.89 8.874c.809 1.419 2.041 2.048 3.659 2.048 1.126 0 2.146-.456 3.025-1.563.88-1.108 1.513-2.631 1.9-4.569l.88.657c-.387 2.354-1.302 4.189-2.674 5.538-1.407 1.35-3.096 1.885-5.136 1.885-2.323 0-4.258-.812-5.77-2.646-1.548-1.869-2.322-4.188-2.322-7.026 0-2.7.774-4.915 2.357-6.715 1.583-1.765 3.553-2.484 5.946-2.484 2.286 0 4.151.546 5.523 1.93 1.372 1.35 2.076 3.347 2.076 5.666H87.658v.935c0 2.873.422 4.925 1.231 6.344zm4.081-8.871c0-1.627-.211-2.932-.633-3.797-.387-.865-.985-1.043-1.759-1.043-.809 0-1.443.303-1.971 1.238-.492.9-.774 2.045-.844 3.602h5.207zm-10.628-5.62l-.387 1.622h-2.288v7.92c0 3.045.283 5.088.635 6.126.316 1.004.95 1.71 1.829 1.987v.391c-1.337-.033-3.363.014-6.051-.02-.493-.277-.845-.766-1.02-1.354-.212-.554-.317-1.592-.317-3.081 0-.415 0-1.004.035-1.696.035-.727-.007-1.211-.007-1.488v-8.785h-1.963l.176-.941a17.396 17.396 0 0 0 3.799-2.631c1.021-1.004 1.9-2.111 2.604-3.426h.485c-.035.45-.134 1.003-.169 1.626 0 .658-.036 1.419-.036 2.354v1.396h2.675zm-.211 18.046zm-8.763.084a38.36 38.36 0 0 0-2.006-.045c-.703-.034-1.372-.034-2.04-.034-.669 0-1.337 0-2.006.034-.668 0-1.337.035-2.005.069v-.38c.528-.277.879-.86 1.055-1.622.211-.726.267-2.18.267-4.291v-3.6c0-2.423-.126-4.154-.478-5.192-.351-1.038-.914-1.558-1.724-1.558-.844 0-1.512.589-2.005 1.766-.493 1.211-.689 2.872-.689 4.984v1.627c0 3.219.056 5.295.267 6.126.211.865.598 1.517 1.126 1.76v.38c-.634-.034-1.267-.069-1.9-.069-.633-.034-1.302-.034-2.006-.034-.668 0-1.372 0-2.11.034-.704 0-1.443.035-2.217.069v-.38c.669-.277 1.311-.929 1.557-1.725.282-.796.387-2.527.387-5.192v-5.781c0-1.488-.105-2.422-.352-2.838-.211-.415-.783-.657-1.381-.692v-.381a82.898 82.898 0 0 0 3.342-.554 75.5 75.5 0 0 0 3.282-.692v2.493c.527-1.073 1.011-1.697 1.749-2.216.739-.484 1.619-.727 2.639-.727 1.9 0 3.307.693 4.187 2.042.879 1.385 1.209 3.531 1.209 6.438v1.939c0 3.115.14 5.122.387 6.057.246.969.831 1.596 1.465 1.804v.381zM45.16 34.879c.809 1.419 2.041 2.146 3.659 2.146 1.126 0 2.146-.554 3.026-1.662.879-1.107 1.513-2.63 1.9-4.569l.879.658c-.387 2.354-1.302 4.188-2.674 5.538-1.407 1.35-3.096 2.008-5.136 2.008-2.322 0-4.257-.935-5.77-2.769-1.548-1.87-2.322-4.189-2.322-7.027 0-2.7.774-4.915 2.357-6.715 1.583-1.765 3.554-2.63 5.946-2.63 2.287 0 4.151.692 5.523 2.077 1.373 1.349 2.076 3.165 2.076 5.484h-10.77v.988c0 2.873.497 5.054 1.306 6.473zm4.081-9.068c0-1.627-.211-2.735-.633-3.6-.387-.866-.985-1.316-1.759-1.316-.809 0-1.442.45-1.97 1.385-.493.9-.874 1.974-.944 3.531h5.306zM19.6 38.564c-2.27 0-4.449-.381-6.478-1.08 15.911.108 27.268-11.433 24.753-25.184a18.945 18.945 0 0 1 1.326 6.981c0 10.648-8.777 19.283-19.601 19.283zm-5.455-8.071V12.701h4.933c6.157.018 10.551 4.313 10.221 10.97 4.361-8.297-.457-16.774-9.219-16.736H7.067v27.17C2.749 30.568 0 25.24 0 19.281 0 8.634 8.778-.001 19.6-.001a19.687 19.687 0 0 1 15.031 6.909c1.021 14.472-5.094 24.186-20.486 23.585z" fill-rule="evenodd" fill="#fff"/></svg>