<svg xmlns="http://www.w3.org/2000/svg" width="23.875" height="23" viewBox="0 0 23.875 23">
  <defs>
    <style>
      .cls-1 {
        fill: #c7cdd9;
        fill-rule: evenodd;
      }
    </style>
  </defs>
  <path id="Feed" class="cls-1" d="M590.567,450.7a0.605,0.605,0,0,0-.581.707v8.572H586v-4.351a0.692,0.692,0,0,0-.67-0.694h-4.655a0.708,0.708,0,0,0-.708.694v4.351h-3.994v-8.655c0-.373,0-0.617-0.394-0.617a0.574,0.574,0,0,0-.6.617v8.994a0.681,0.681,0,0,0,.669.682h4.695a0.682,0.682,0,0,0,.67-0.682v-4.2H585v4.2a0.686,0.686,0,0,0,.695.682h4.631a0.681,0.681,0,0,0,.669-0.682v-8.911C591,451.007,590.933,450.7,590.567,450.7Zm4.311-.853-5.868-5.854v-4.2c0-.4-0.109-0.573-0.5-0.573a0.5,0.5,0,0,0-.533.594V442.8l-4.476-4.579a0.662,0.662,0,0,0-.467-0.219,0.68,0.68,0,0,0-.493.219L571.19,449.77c-0.273.277,0.164,0.549,0.454,0.8,0.253,0.3.815-.279,1.087-0.556L583,439.048l10.684,11.317a0.86,0.86,0,0,0,.542.283,0.353,0.353,0,0,0,.344-0.046C594.824,450.344,595.149,450.126,594.878,449.847Z" transform="translate(-571.094 -438)"/>
</svg>
